#Comment line ignore any data following # character 
#Hierarchical Translation and Rotation (.htr) file 
[Header]	
#Header keywords are followed by a single value 
FileType HTR		#Single word string
DataType HTRS		#Translation followed by rotation and scale data
FileVersion 1		#integer
NumSegments 64		#integer
NumFrames 3		#integer
DataFrameRate 30		#integer, data frame rate in this file
EulerRotationOrder ZYX
CalibrationUnits mm
RotationUnits Degrees
GlobalAxisofGravity Y
BoneLengthAxis Y
ScaleFactor 1.00
[SegmentNames&Hierarchy]
#CHILD	PARENT
Pinger_Root GLOBAL
Pelvis Pinger_Root
L_Hip Pelvis
R_Hip Pelvis
Rear_Leg01 Pelvis
Spine1 Pelvis
L_Leg01 L_Hip
L_Leg02 L_Leg01
L_Leg03 L_Leg02
L_Foot L_Leg03
L_Toe1_01 L_Foot
L_Toe2_01 L_Foot
L_Toe3_01 L_Foot
planeAlignerLeft L_Foot
L_Toe1_02 L_Toe1_01
L_Toe1_03 L_Toe1_02
L_Toe2_02 L_Toe2_01
L_Toe2_03 L_Toe2_02
L_Toe3_02 L_Toe3_01
L_Toe3_03 L_Toe3_02
planeLockWeightLeft planeAlignerLeft
R_Leg01 R_Hip
R_Leg02 R_Leg01
R_Leg03 R_Leg02
R_Foot R_Leg03
planeAlignerRight R_Foot
R_Toe1_01 R_Foot
R_Toe2_01 R_Foot
R_Toe3_01 R_Foot
planeLockWeightRight planeAlignerRight
R_Toe1_02 R_Toe1_01
R_Toe1_03 R_Toe1_02
R_Toe2_02 R_Toe2_01
R_Toe2_03 R_Toe2_02
R_Toe3_02 R_Toe3_01
R_Toe3_03 R_Toe3_02
Rear_Leg02 Rear_Leg01
Rear_Leg03 Rear_Leg02
Rear_Leg04 Rear_Leg03
Rear_Foot Rear_Leg04
planeAlignerCenter Rear_Foot
Rear_Toe1_01 Rear_Foot
Rear_Toe2_01 Rear_Foot
Rear_Toe3_01 Rear_Foot
planeLockWeightCenter planeAlignerCenter
Rear_Toe1_02 Rear_Toe1_01
Rear_Toe1_03 Rear_Toe1_02
Rear_Toe2_02 Rear_Toe2_01
Rear_Toe2_03 Rear_Toe2_02
Rear_Toe3_02 Rear_Toe3_01
Rear_Toe3_03 Rear_Toe3_02
Back_Bone Spine1
Head Spine1
Motor_Bone Back_Bone
Ping_Mechanism Back_Bone
BN_LookIK Head
bottomMouth Head
L_Mouth01 Head
L_mouthFront Head
mouthGun Head
R_Mouth01 Head
R_mouthFront Head
TopMouth Head
weapon_bone Head
[BasePosition]
#SegmentName Tx, Ty, Tz, Rx, Ry, Rz, BoneLength
Pinger_Root 0.000000 0.000000 0.000000 -90.000000 0.000000 0.000000 10.000000 
Pelvis 0.000000 0.000000 0.000000 0.000000 0.000000 0.000000 10.000000 
L_Hip 0.000000 0.000000 0.000000 0.000000 0.000000 0.000000 10.000000 
R_Hip 0.000000 0.000000 0.000000 0.000000 0.000000 0.000000 10.000000 
Rear_Leg01 0.000000 0.000000 0.000000 0.000000 0.000000 0.000000 10.000000 
Spine1 0.000000 0.000000 0.000000 0.000000 0.000000 0.000000 10.000000 
L_Leg01 0.000000 0.000000 0.000000 0.000000 0.000000 0.000000 10.000000 
L_Leg02 0.000000 0.000000 0.000000 0.000000 0.000000 0.000000 10.000000 
L_Leg03 0.000000 0.000000 0.000000 0.000000 0.000000 0.000000 10.000000 
L_Foot 0.000000 0.000000 0.000000 0.000000 0.000000 0.000000 10.000000 
L_Toe1_01 0.000000 0.000000 0.000000 0.000000 0.000000 0.000000 10.000000 
L_Toe2_01 0.000000 0.000000 0.000000 0.000000 0.000000 0.000000 10.000000 
L_Toe3_01 0.000000 0.000000 0.000000 0.000000 0.000000 0.000000 10.000000 
planeAlignerLeft 0.000000 0.000000 0.000000 0.000000 0.000000 0.000000 10.000000 
L_Toe1_02 0.000000 0.000000 0.000000 0.000000 0.000000 0.000000 10.000000 
L_Toe1_03 0.000000 0.000000 0.000000 0.000000 0.000000 0.000000 10.000000 
L_Toe2_02 0.000000 0.000000 0.000000 0.000000 0.000000 0.000000 10.000000 
L_Toe2_03 0.000000 0.000000 0.000000 0.000000 0.000000 0.000000 10.000000 
L_Toe3_02 0.000000 0.000000 0.000000 0.000000 0.000000 0.000000 10.000000 
L_Toe3_03 0.000000 0.000000 0.000000 0.000000 0.000000 0.000000 10.000000 
planeLockWeightLeft 0.000000 0.000000 0.000000 0.000000 0.000000 0.000000 10.000000 
R_Leg01 0.000000 0.000000 0.000000 0.000000 0.000000 0.000000 10.000000 
R_Leg02 0.000000 0.000000 0.000000 0.000000 0.000000 0.000000 10.000000 
R_Leg03 0.000000 0.000000 0.000000 0.000000 0.000000 0.000000 10.000000 
R_Foot 0.000000 0.000000 0.000000 0.000000 0.000000 0.000000 10.000000 
planeAlignerRight 0.000000 0.000000 0.000000 0.000000 0.000000 0.000000 10.000000 
R_Toe1_01 0.000000 0.000000 0.000000 0.000000 0.000000 0.000000 10.000000 
R_Toe2_01 0.000000 0.000000 0.000000 0.000000 0.000000 0.000000 10.000000 
R_Toe3_01 0.000000 0.000000 0.000000 0.000000 0.000000 0.000000 10.000000 
planeLockWeightRight 0.000000 0.000000 0.000000 0.000000 0.000000 0.000000 10.000000 
R_Toe1_02 0.000000 0.000000 0.000000 0.000000 0.000000 0.000000 10.000000 
R_Toe1_03 0.000000 0.000000 0.000000 0.000000 0.000000 0.000000 10.000000 
R_Toe2_02 0.000000 0.000000 0.000000 0.000000 0.000000 0.000000 10.000000 
R_Toe2_03 0.000000 0.000000 0.000000 0.000000 0.000000 0.000000 10.000000 
R_Toe3_02 0.000000 0.000000 0.000000 0.000000 0.000000 0.000000 10.000000 
R_Toe3_03 0.000000 0.000000 0.000000 0.000000 0.000000 0.000000 10.000000 
Rear_Leg02 0.000000 0.000000 0.000000 0.000000 0.000000 0.000000 10.000000 
Rear_Leg03 0.000000 0.000000 0.000000 0.000000 0.000000 0.000000 10.000000 
Rear_Leg04 0.000000 0.000000 0.000000 0.000000 0.000000 0.000000 10.000000 
Rear_Foot 0.000000 0.000000 0.000000 0.000000 0.000000 0.000000 10.000000 
planeAlignerCenter 0.000000 0.000000 0.000000 0.000000 0.000000 0.000000 10.000000 
Rear_Toe1_01 0.000000 0.000000 0.000000 0.000000 0.000000 0.000000 10.000000 
Rear_Toe2_01 0.000000 0.000000 0.000000 0.000000 0.000000 0.000000 10.000000 
Rear_Toe3_01 0.000000 0.000000 0.000000 0.000000 0.000000 0.000000 10.000000 
planeLockWeightCenter 0.000000 0.000000 0.000000 0.000000 0.000000 0.000000 10.000000 
Rear_Toe1_02 0.000000 0.000000 0.000000 0.000000 0.000000 0.000000 10.000000 
Rear_Toe1_03 0.000000 0.000000 0.000000 0.000000 0.000000 0.000000 10.000000 
Rear_Toe2_02 0.000000 0.000000 0.000000 0.000000 0.000000 0.000000 10.000000 
Rear_Toe2_03 0.000000 0.000000 0.000000 0.000000 0.000000 0.000000 10.000000 
Rear_Toe3_02 0.000000 0.000000 0.000000 0.000000 0.000000 0.000000 10.000000 
Rear_Toe3_03 0.000000 0.000000 0.000000 0.000000 0.000000 0.000000 10.000000 
Back_Bone 0.000000 0.000000 0.000000 0.000000 0.000000 0.000000 10.000000 
Head 0.000000 0.000000 0.000000 0.000000 0.000000 0.000000 10.000000 
Motor_Bone 0.000000 0.000000 0.000000 0.000000 0.000000 0.000000 10.000000 
Ping_Mechanism 0.000000 0.000000 0.000000 0.000000 0.000000 0.000000 10.000000 
BN_LookIK 0.000000 0.000000 0.000000 0.000000 0.000000 0.000000 10.000000 
bottomMouth 0.000000 0.000000 0.000000 0.000000 0.000000 0.000000 10.000000 
L_Mouth01 0.000000 0.000000 0.000000 0.000000 0.000000 0.000000 10.000000 
L_mouthFront 0.000000 0.000000 0.000000 0.000000 0.000000 0.000000 10.000000 
mouthGun 0.000000 0.000000 0.000000 0.000000 0.000000 0.000000 10.000000 
R_Mouth01 0.000000 0.000000 0.000000 0.000000 0.000000 0.000000 10.000000 
R_mouthFront 0.000000 0.000000 0.000000 0.000000 0.000000 0.000000 10.000000 
TopMouth 0.000000 0.000000 0.000000 0.000000 0.000000 0.000000 10.000000 
weapon_bone 0.000000 0.000000 0.000000 0.000000 0.000000 0.000000 10.000000 
#Beginning of Data. Separated by tabs
#Fr	Tx	Ty	Tz	Rx	Ry	Rz	SF
[Pinger_Root]
52 6611.108887 0.000000 0.000000 -0.000075 -0.000000 -0.000020 6611.108887
53 6740.737793 0.000000 0.000000 -0.000075 -0.000000 -0.000020 6740.737793
54 6870.368164 0.000000 0.000000 -0.000075 -0.000000 -0.000020 6870.368164
[Pelvis]
52 628.854065 -384.504333 4993.803223 -104.179367 -72.427269 50.759106 5047.907715
53 638.559082 -323.672791 5011.878418 -101.843552 -73.030098 47.696323 5062.750977
54 644.340393 -257.187592 5034.109375 -101.323662 -75.214943 47.003185 5081.690430
[L_Hip]
52 5.766392 125.831482 872.656799 -178.250168 -81.786369 87.376007 881.701050
53 5.766392 125.831482 872.656799 -178.250168 -81.786369 87.376007 881.701050
54 5.766392 125.831482 872.656799 -178.250168 -81.786369 87.376007 881.701050
[R_Hip]
52 5.765438 125.836372 -872.654907 -1.748770 81.786041 87.376961 881.699829
53 5.765438 125.836372 -872.654907 -1.748770 81.786041 87.376961 881.699829
54 5.765438 125.836372 -872.654907 -1.748770 81.786041 87.376961 881.699829
[Rear_Leg01]
52 -192.298416 -925.602966 -0.001907 165.843735 -35.686321 -146.718689 945.367432
53 -192.298416 -925.602966 -0.001907 164.240372 -30.170948 -149.333206 945.367432
54 -192.298416 -925.602966 -0.001907 163.950943 -25.116011 -151.526840 945.367432
[Spine1]
52 290.604584 5.007505 0.000477 41.297569 -15.399303 4.836621 290.647736
53 290.604584 5.007505 0.000477 42.019760 -16.636124 5.205001 290.647736
54 290.604584 5.007505 0.000477 42.231533 -17.389761 7.380155 290.647736
[L_Leg01]
52 761.932007 -0.002384 -0.069261 49.896465 -43.582432 -62.399303 761.932068
53 761.932007 -0.002384 -0.069261 49.773151 -43.544731 -60.896606 761.932068
54 761.932007 -0.002384 -0.069261 51.310265 -41.845200 -61.202408 761.932068
[L_Leg02]
52 1441.140503 -0.000954 -0.000715 -1.559105 0.438259 -84.250511 1441.140503
53 1441.140503 -0.000954 -0.000715 -1.531063 0.438610 -89.807129 1441.140503
54 1441.140503 -0.000954 -0.000715 -1.501798 0.456713 -93.685966 1441.140503
[L_Leg03]
52 1686.963989 -0.000715 -0.000954 0.026220 -0.006654 103.626312 1686.963989
53 1686.963989 -0.000715 -0.000954 0.026204 -0.006715 103.890381 1686.963989
54 1686.963989 -0.000715 -0.000954 0.026223 -0.006641 103.569359 1686.963989
[L_Foot]
52 3041.570068 -30.715107 11.297464 -0.967916 12.736634 36.891968 3041.746094
53 3041.570068 -30.715107 11.297464 -2.879871 13.966185 40.395657 3041.746094
54 3041.570068 -30.715107 11.297464 -4.292196 14.739968 43.586334 3041.746094
[L_Toe1_01]
52 -188.216690 -224.732346 -21.137953 89.389275 -1.968797 -163.197708 293.899567
53 -188.216690 -224.732346 -21.137953 89.500725 -2.596826 -164.379913 293.899567
54 -188.216690 -224.732346 -21.137953 89.639893 -3.148678 -165.159546 293.899567
[L_Toe2_01]
52 200.746536 -219.926590 148.838394 -78.043335 -14.332776 -42.847534 332.896027
53 200.746536 -219.926590 148.838394 -77.847862 -14.397766 -43.424782 332.896027
54 200.746536 -219.926590 148.838394 -77.651649 -14.460842 -44.002407 332.896027
[L_Toe3_01]
52 188.832520 -219.859131 -191.078659 -105.610802 17.743088 -44.802052 347.140900
53 188.832520 -219.859131 -191.078659 -105.394035 16.441902 -44.859184 347.140900
54 188.832520 -219.859131 -191.078659 -105.177299 15.140918 -44.921040 347.140900
[planeAlignerLeft]
52 -69.235298 -602.908081 1.055363 0.000000 -90.000000 -90.001900 606.871277
53 -41.631187 -604.528809 13.669754 0.000000 -90.000000 -90.001900 606.114746
54 -20.393471 -605.776794 23.373228 0.000000 -90.000000 -90.001900 606.570435
[L_Toe1_02]
52 413.761139 0.000477 0.000000 0.001398 -24.206816 0.001398 413.761139
53 413.761139 0.000477 0.000000 0.001404 -23.455330 0.001404 413.761139
54 413.761139 0.000477 0.000000 0.001410 -22.703873 0.001410 413.761139
[L_Toe1_03]
52 464.317322 0.000358 -0.000089 0.007637 72.320236 0.007637 464.317322
53 464.317322 0.000358 -0.000089 0.010145 76.713707 0.010145 464.317322
54 464.317322 0.000358 -0.000089 0.013269 79.851097 0.013269 464.317322
[L_Toe2_02]
52 342.235809 -0.000477 0.000238 0.003520 -79.451126 0.003520 342.235809
53 342.235809 -0.000477 0.000238 0.002351 -78.764725 0.002351 342.235809
54 342.235809 -0.000477 0.000238 0.001180 -78.078308 0.001180 342.235809
[L_Toe2_03]
52 420.210846 -0.000715 0.000000 -179.998795 67.895439 -179.995224 420.210846
53 420.210846 -0.000715 0.000000 -179.998047 72.203903 -179.994522 420.210846
54 420.210846 -0.000715 0.000000 -179.997131 75.720627 -179.993607 420.210846
[L_Toe3_02]
52 329.270111 0.000954 0.000000 0.001176 -82.998398 0.001176 329.270111
53 329.270111 0.000954 0.000000 0.001176 -82.625839 0.001176 329.270111
54 329.270111 0.000954 0.000000 0.001176 -82.253265 0.001176 329.270111
[L_Toe3_03]
52 439.137451 -0.001907 0.000954 179.995850 66.526848 -179.998795 439.137451
53 439.137451 -0.001907 0.000954 -179.998581 69.280426 -179.995041 439.137451
54 439.137451 -0.001907 0.000954 -179.998184 71.574715 -179.994644 439.137451
[planeLockWeightLeft]
52 1000.000000 0.098183 0.076310 -0.011826 -0.004376 0.005620 1000.000000
53 1000.000000 0.098211 0.076302 -0.011826 -0.004376 0.005620 1000.000000
54 1000.000000 0.098239 0.076293 -0.011826 -0.004376 0.005620 1000.000000
[R_Leg01]
52 761.455627 -0.001907 -0.000358 97.751282 -19.701426 92.776474 761.455688
53 761.455627 -0.001907 -0.000358 94.907082 -18.001024 93.599113 761.455688
54 761.455627 -0.001907 -0.000358 93.275909 -14.482093 94.484268 761.455688
[R_Leg02]
52 1441.140625 0.000000 -0.000238 0.181823 -0.032198 -99.927132 1441.140625
53 1441.140625 0.000000 -0.000238 0.184545 -0.031253 -98.165146 1441.140625
54 1441.140625 0.000000 -0.000238 0.181843 -0.030223 -95.604744 1441.140625
[R_Leg03]
52 1686.963989 0.000954 0.001431 -0.056574 0.013057 95.174904 1686.963989
53 1686.963989 0.000954 0.001431 -0.063800 0.012179 93.026199 1686.963989
54 1686.963989 0.000954 0.001431 -0.074624 0.013950 89.935326 1686.963989
[R_Foot]
52 3041.560059 -30.531288 -11.204481 -0.805685 -16.726086 92.009689 3041.734131
53 3041.560059 -30.531288 -11.204481 -2.160770 -18.497864 94.094139 3041.734131
54 3041.560059 -30.531288 -11.204481 -3.267003 -19.782982 96.366440 3041.734131
[planeAlignerRight]
52 -0.531006 -699.182129 0.036011 0.000000 -89.960434 -90.005180 699.182373
53 -0.528565 -687.301514 0.038452 0.000000 -89.960434 -90.005180 687.301697
54 -0.531616 -682.866577 0.039368 0.000000 -89.960434 -90.005180 682.866760
[R_Toe1_01]
52 -188.383347 -224.864899 21.052242 90.743935 1.963275 -158.695602 294.101532
53 -188.383347 -224.864899 21.052242 90.712257 1.975709 -159.652695 294.101532
54 -188.383347 -224.864899 21.052242 90.691635 1.980460 -160.008301 294.101532
[R_Toe2_01]
52 200.637817 -220.002121 -148.787384 -103.365013 11.188291 -50.896183 332.857574
53 200.637817 -220.002121 -148.787384 -103.192078 11.388249 -50.026924 332.857574
54 200.637817 -220.002121 -148.787384 -103.128372 11.467890 -49.692375 332.857574
[R_Toe3_01]
52 188.606735 -220.092957 191.126343 -72.584946 -13.789992 -52.788185 347.192566
53 188.606735 -220.092957 191.126343 -72.780495 -14.049861 -51.903595 347.192566
54 188.606735 -220.092957 191.126343 -72.873528 -14.151969 -51.573143 347.192566
[planeLockWeightRight]
52 999.999329 0.000484 0.076238 -0.011823 -0.004379 -0.000027 999.999329
53 999.999329 0.000526 0.076247 -0.011823 -0.004379 -0.000027 999.999329
54 999.999329 0.000568 0.076256 -0.011823 -0.004379 -0.000027 999.999329
[R_Toe1_02]
52 413.762085 0.000477 -0.000119 0.001402 -23.668430 0.001402 413.762085
53 413.762085 0.000477 -0.000119 0.001404 -23.360016 0.001404 413.762085
54 413.762085 0.000477 -0.000119 0.001404 -23.375162 0.001404 413.762085
[R_Toe1_03]
52 464.317810 0.000000 0.001088 0.009455 75.739426 0.009455 464.317810
53 464.317810 0.000000 0.001088 0.010198 76.783165 0.010198 464.317810
54 464.317810 0.000000 0.001088 0.010498 77.162277 0.010498 464.317810
[R_Toe2_02]
52 342.234741 -0.000954 0.000238 -0.002343 -75.078911 -0.002343 342.234741
53 342.234741 -0.000954 0.000238 -0.002342 -75.344490 -0.002342 342.234741
54 342.234741 -0.000954 0.000238 -0.002342 -75.610016 -0.002342 342.234741
[R_Toe2_03]
52 420.210846 0.000715 -0.000268 -179.978806 86.612976 -179.982300 420.210846
53 420.210846 0.000715 -0.000268 -179.984070 85.355309 -179.987564 420.210846
54 420.210846 0.000715 -0.000268 -179.985352 84.892014 -179.988861 420.210846
[R_Toe3_02]
52 329.270355 -0.000477 -0.000954 0.001179 -78.931618 0.001179 329.270355
53 329.270355 -0.000477 -0.000954 0.001179 -79.364037 0.001179 329.270355
54 329.270355 -0.000477 -0.000954 0.001179 -79.351196 0.001179 329.270355
[R_Toe3_03]
52 439.137939 0.000238 0.001431 -179.990997 83.870842 -179.987488 439.137939
53 439.137939 0.000238 0.001431 -179.992722 82.699371 -179.989227 439.137939
54 439.137939 0.000238 0.001431 -179.993225 82.271858 -179.989716 439.137939
[Rear_Leg02]
52 1162.777710 -0.029802 0.005960 14.922106 -29.764486 -81.246773 1162.777710
53 1162.777710 -0.029802 0.005960 20.310160 -25.541035 -89.588249 1162.777710
54 1162.777710 -0.029802 0.005960 24.210979 -20.928646 -97.341972 1162.777710
[Rear_Leg03]
52 607.192505 -0.013351 -0.073195 0.010442 -0.005207 69.358566 607.192505
53 607.192505 -0.013351 -0.073195 0.010273 -0.005533 72.964790 607.192505
54 607.192505 -0.013351 -0.073195 0.010132 -0.005788 75.827187 607.192505
[Rear_Leg04]
52 995.874512 -0.020504 -0.011921 -0.040467 -0.018204 68.920036 995.874573
53 995.874512 -0.020504 -0.011921 -0.041743 -0.015051 77.707260 995.874573
54 995.874512 -0.020504 -0.011921 -0.042451 -0.019041 85.840591 995.874573
[Rear_Foot]
52 3096.176270 -0.067472 -0.041425 -129.142731 48.306507 -3.479376 3096.176270
53 3096.176270 -0.067472 -0.041425 -123.628418 54.366394 -2.252117 3096.176270
54 3096.176270 -0.067472 -0.041425 -114.810371 60.033600 3.051656 3096.176270
[planeAlignerCenter]
52 -9.193797 195.518707 -764.532654 0.000009 0.000003 -179.999985 789.190857
53 -5.487145 220.097687 -763.072571 0.000009 0.000003 -179.999985 794.199524
54 -2.083805 238.467361 -762.029114 0.000009 0.000003 -179.999985 798.473206
[Rear_Toe1_01]
52 0.653352 83.966492 -371.173737 0.107847 47.614975 90.056679 380.553192
53 0.653352 83.966492 -371.173737 0.110699 42.120876 90.057091 380.553192
54 0.653352 83.966492 -371.173737 0.101226 39.668652 90.046989 380.553192
[Rear_Toe2_01]
52 178.200760 -294.826019 -362.060547 6.186569 63.736511 -64.032310 499.765686
53 178.200760 -294.826019 -362.060547 19.192650 77.970673 -51.331459 499.765686
54 178.200760 -294.826019 -362.060547 56.480000 84.530693 -14.213048 499.765686
[Rear_Toe3_01]
52 -153.359680 -308.780914 -362.060852 -7.179866 63.651939 -119.239258 499.952881
53 -153.359680 -308.780914 -362.060852 -21.658173 77.672150 -133.356644 499.952881
54 -153.359680 -308.780914 -362.060852 -58.796665 83.910736 -170.293549 499.952881
[planeLockWeightCenter]
52 0.000153 0.000153 0.076447 -0.011814 -0.004373 -0.000015 0.076447
53 0.000203 0.000203 0.076447 -0.011814 -0.004373 -0.000015 0.076447
54 0.000254 0.000254 0.076447 -0.011814 -0.004373 -0.000015 0.076447
[Rear_Toe1_02]
52 379.707825 0.194073 0.000477 -0.000767 -33.624729 0.000838 379.707855
53 379.707825 0.194073 0.000477 -0.000767 -33.624729 0.000838 379.707855
54 379.707825 0.194073 0.000477 -0.000767 -33.624729 0.000838 379.707855
[Rear_Toe1_03]
52 500.129700 0.165701 0.000119 -0.008541 83.598251 -0.012044 500.129761
53 500.129700 0.165701 0.000119 -179.975830 87.062553 -179.979324 500.129761
54 500.129700 0.165701 0.000119 -179.986572 84.357086 -179.990082 500.129761
[Rear_Toe2_02]
52 340.494507 0.000238 -0.000954 179.998825 -87.858444 179.998825 340.494507
53 340.494507 0.000238 -0.000954 179.998825 -87.132904 179.998825 340.494507
54 340.494507 0.000238 -0.000954 179.998825 -87.231895 179.998825 340.494507
[Rear_Toe2_03]
52 433.103577 0.000000 0.000238 -179.996109 57.832325 -179.999741 433.103546
53 433.103577 0.000000 0.000238 -179.996292 54.368801 -179.999969 433.103546
54 433.103577 0.000000 0.000238 -179.996216 55.589664 -179.999878 433.103546
[Rear_Toe3_02]
52 340.494141 -0.000358 -0.000477 -179.997681 -87.920387 -179.997681 340.494171
53 340.494141 -0.000358 -0.000477 -179.994171 -87.180542 -179.994171 340.494171
54 340.494141 -0.000358 -0.000477 -179.994171 -87.279762 -179.994171 340.494171
[Rear_Toe3_03]
52 433.103577 0.001431 -0.000238 179.992081 58.160313 179.999359 433.103546
53 433.103577 0.001431 -0.000238 179.992462 54.641403 179.999802 433.103546
54 433.103577 0.001431 -0.000238 179.992340 55.835793 179.999664 433.103546
[Back_Bone]
52 1312.175781 -701.934692 0.000954 -2.394412 2.513105 -83.853050 1488.125488
53 1312.175781 -701.934692 0.000954 -2.649597 2.005941 -83.663635 1488.125488
54 1312.175781 -701.934692 0.000954 -2.764033 1.717784 -83.953346 1488.125488
[Head]
52 1406.159424 809.709290 0.001431 7.302870 -3.302185 3.440434 1622.625488
53 1406.159424 809.709290 0.001431 7.115310 -3.254182 3.271554 1622.625488
54 1406.159424 809.709290 0.001431 6.927620 -3.206731 3.102525 1622.625488
[Motor_Bone]
52 1158.364380 -417.834747 0.000477 -0.003510 -1.410939 -107.395241 1231.419434
53 1158.364380 -417.834747 0.000477 5.387031 -2.893384 -108.880913 1231.419434
54 1158.364380 -417.834747 0.000477 1.328373 -1.434140 -107.312431 1231.419434
[Ping_Mechanism]
52 1283.843750 -466.665436 44.321426 0.000103 -0.000053 82.120995 1366.746460
53 1278.598022 -465.590820 47.772747 0.000103 -0.000053 82.120995 1361.568970
54 1270.651855 -462.622101 41.948353 0.000103 -0.000053 82.120995 1352.898682
[BN_LookIK]
52 193.241119 1380.371704 -0.002861 0.000000 89.965736 -31.038179 1393.832153
53 193.241119 1380.371704 -0.002861 0.000000 89.965736 -31.038179 1393.832153
54 193.241119 1380.371704 -0.002861 0.000000 89.965736 -31.038179 1393.832153
[bottomMouth]
52 -435.092926 615.759399 -0.000954 -0.000022 0.000016 73.527184 753.966492
53 -435.092926 615.759399 -0.000954 -0.000022 0.000016 73.527184 753.966492
54 -435.092926 615.759399 -0.000954 -0.000022 0.000016 73.527184 753.966492
[L_Mouth01]
52 554.440979 7.658243 838.222046 150.204178 23.759130 109.605339 1005.027161
53 554.440979 7.658243 838.222046 150.204178 23.759130 109.605339 1005.027161
54 554.440979 7.658243 838.222046 150.204178 23.759130 109.605339 1005.027161
[L_mouthFront]
52 551.629089 934.514771 339.150421 0.000081 2.804060 79.119301 1136.941284
53 551.629089 934.514771 339.150421 0.000081 2.804060 79.119301 1136.941284
54 551.629089 934.514771 339.150421 0.000081 2.804060 79.119301 1136.941284
[mouthGun]
52 55.332661 1627.420898 0.000000 0.000023 0.000009 -11.038128 1628.361328
53 55.332661 1627.420898 0.000000 0.000023 0.000009 -11.038128 1628.361328
54 55.332661 1627.420898 0.000000 0.000023 0.000009 -11.038128 1628.361328
[R_Mouth01]
52 554.442383 7.659197 -838.223938 29.795891 -23.759109 109.605331 1005.029541
53 554.442383 7.659197 -838.223938 29.795891 -23.759109 109.605331 1005.029541
54 554.442383 7.659197 -838.223938 29.795891 -23.759109 109.605331 1005.029541
[R_mouthFront]
52 551.629089 934.514282 -339.151367 0.000029 -2.803930 79.119133 1136.941162
53 551.629089 934.514282 -339.151367 0.000029 -2.803930 79.119133 1136.941162
54 551.629089 934.514282 -339.151367 0.000029 -2.803930 79.119133 1136.941162
[TopMouth]
52 461.269867 -56.106091 -0.008583 -0.000059 -0.000268 92.025169 464.669525
53 461.269867 -56.106091 -0.008583 -0.000059 -0.000268 92.025169 464.669525
54 461.269867 -56.106091 -0.008583 -0.000059 -0.000268 92.025169 464.669525
[weapon_bone]
52 -987.239868 1448.372803 0.001431 0.000000 89.965736 -31.038221 1752.833740
53 -987.239868 1448.372803 0.001431 0.000000 89.965736 -31.038221 1752.833740
54 -987.239868 1448.372803 0.001431 0.000000 89.965736 -31.038221 1752.833740
